<svg width="80" height="80" fill="none" xmlns="http://www.w3.org/2000/svg">
    <path d="m28.924 26.494 4.52-4.889h-8.715l-4.857 4.868h8.944c.039 0 .07.02.108.021zM28.416 28.809c-.02-.018-.048-.022-.067-.04-.015-.016-.02-.038-.037-.053H17.829L15.433 40.72h15.366l-2.383-11.912zM30.57 28.152l2.224 11.117 4.872-5.556-2.202-10.995-4.921 5.33c.004.034.024.066.026.104zM31.429 58.345h-3.637v2.99h23.937v-2.99h-3.765L42.176 48.5h22.38v-2.989h-49.72v2.99H37.22l-5.79 9.843zM44.121 31.713c0 6.18 5.03 11.21 11.209 11.21 6.181 0 11.209-5.03 11.209-11.21 0-6.182-5.028-11.208-11.21-11.208-6.18 0-11.208 5.026-11.208 11.208zm15.554-3.777v.645h-2.989v-.645a.536.536 0 0 0-.542-.543h-1.63a.54.54 0 0 0-.542.543v1.363c.01-.029.096.103.371.289l.287.125.009-.018 2.18.971.505.218v.008l.47.209c1.214.764 1.88 1.789 1.88 2.88v1.39a3.529 3.529 0 0 1-2.728 3.426v2.3h-2.987V38.84c-1.683-.268-2.976-1.715-2.976-3.47v-.646h2.989v.647a.54.54 0 0 0 .538.537h1.638a.537.537 0 0 0 .536-.537v-1.39c-.004.044-.124-.111-.402-.298l-.148-.064-.003.006-3.307-1.46c-1.523-.968-1.843-2.082-1.843-2.845v-1.383c0-1.757 1.293-3.207 2.976-3.477v-2.133h2.987v2.178a3.53 3.53 0 0 1 2.731 3.43z" fill="#004786"/>
</svg>
