<svg xmlns="http://www.w3.org/2000/svg" width="200" height="200" fill="none" viewBox="0 0 200 200">
    <path fill="#FFC800" d="M95 65.02c0-1.327.527-2.598 1.465-3.536.937-.938 2.209-1.465 3.535-1.465s2.598.527 3.536 1.465c.937.938 1.464 2.21 1.464 3.535v10.02c0 1.327-.527 2.598-1.464 3.536-.938.938-2.21 1.465-3.536 1.465s-2.598-.527-3.535-1.465C95.526 77.637 95 76.365 95 75.04V65.02zM128.503 74.43c-.938-.937-2.209-1.464-3.535-1.464s-2.598.527-3.535 1.464l-7.08 7.09c-.911.943-1.415 2.206-1.404 3.517.012 1.311.538 2.565 1.465 3.492s2.181 1.453 3.492 1.465c1.311.011 2.574-.493 3.517-1.404l7.09-7.09c.937-.937 1.464-2.209 1.464-3.535s-.527-2.597-1.464-3.535h-.01zM78.518 74.43c-.46-.478-1.013-.86-1.623-1.121-.61-.262-1.266-.4-1.93-.406-.664-.006-1.322.12-1.937.372-.614.252-1.172.623-1.642 1.092-.47.47-.84 1.028-1.092 1.642-.251.615-.378 1.273-.372 1.937.006.664.144 1.32.406 1.93.262.61.643 1.162 1.12 1.623l7.08 7.09c.462.478 1.013.859 1.623 1.12.61.263 1.266.4 1.93.406.664.006 1.323-.12 1.937-.372.615-.251 1.173-.622 1.642-1.092.47-.47.841-1.027 1.092-1.642.252-.614.378-1.273.373-1.937-.006-.664-.144-1.32-.406-1.93-.262-.61-.643-1.161-1.12-1.623l-7.08-7.09z"/>
    <path fill="#FFC800" d="M100 20c33.14 0 60 25.97 60 58 0 16.77-7.45 32.16-22.04 45.94-.632.596-1.127 1.323-1.45 2.13l-.26.81-9.36 39.17c-1.84 7.71-8.65 13.3-16.7 13.9l-1.44.05h-17.5c-8.18 0-15.35-5.16-17.76-12.62l-.38-1.33-9.35-39.16c-.267-1.128-.858-2.153-1.7-2.95-13.9-13.12-21.33-27.7-22-43.55L40 78l.03-1.91C41.08 44.94 67.53 20 100 20zM79.55 150l3.19 13.34.26.96c.97 3 3.76 5.22 7.12 5.63l1.13.07h17.13l1.06-.03c1.603-.092 3.148-.633 4.459-1.561 1.31-.929 2.333-2.207 2.951-3.689l.31-1 3.29-13.72h-40.9zM100 30c-26.32 0-47.88 19.53-49.85 44.14l-.12 2.12-.03 1.53.04 2.17c.56 13.04 6.74 25.25 18.88 36.71 1.88 1.78 3.3 3.98 4.14 6.4l.43 1.5L77.16 140H95V94.97c0-1.326.527-2.598 1.465-3.535.937-.938 2.209-1.465 3.535-1.465s2.598.527 3.536 1.465c.937.937 1.464 2.209 1.464 3.535V140h17.85l3.87-16.15.51-1.5c.86-2.15 2.18-4.09 3.86-5.68C143.83 104.65 150 91.81 150 78c0-26.43-22.31-48-50-48z"/>
</svg>
