<svg width="80" height="80" fill="none" xmlns="http://www.w3.org/2000/svg">
    <g clip-path="url(#a)">
        <path d="M40-301.1A26.125 26.125 0 0 0 13.912-275 26.111 26.111 0 0 0 40-248.913 26.12 26.12 0 0 0 66.1-275 26.14 26.14 0 0 0 40-301.1zm23.525 24.85H52.5a55.88 55.88 0 0 1 2.6-16.813 23.531 23.531 0 0 1 8.425 16.813zm-22.275 0v-22.275a23.43 23.43 0 0 1 11.812 3.887A57.053 57.053 0 0 0 50-276.25h-8.75zm-2.5 0H30a57.052 57.052 0 0 0-3.013-18.388 23.435 23.435 0 0 1 11.763-3.887v22.275zm0 2.5v22.275a23.421 23.421 0 0 1-11.813-3.888A57.042 57.042 0 0 0 30-273.75h8.75zm2.5 0H50a57.044 57.044 0 0 0 3.012 18.387 23.426 23.426 0 0 1-11.762 3.888v-22.275zm-16.4-19.313a55.876 55.876 0 0 1 2.65 16.813H16.475a23.523 23.523 0 0 1 8.375-16.813zm-8.375 19.313H27.5a55.866 55.866 0 0 1-2.6 16.812 23.518 23.518 0 0 1-8.425-16.812zm38.675 16.812a55.865 55.865 0 0 1-2.65-16.812h10.975a23.52 23.52 0 0 1-8.325 16.812zm109.275-39.575h-38.85a3.201 3.201 0 0 0-3.2 3.2v2.838a3.21 3.21 0 0 0 3.2 3.212h.137l6.25 32.763a1.251 1.251 0 0 0 1.917.806 1.24 1.24 0 0 0 .546-1.281l-1.25-6.675 11.612 4.312h.463l11.6-4.312-1.25 6.675a1.238 1.238 0 0 0 .196.939 1.249 1.249 0 0 0 .804.523c.074.013.15.013.225 0a1.247 1.247 0 0 0 1.25-1.012l6.25-32.763h.225a3.212 3.212 0 0 0 3.2-3.212v-2.838a3.204 3.204 0 0 0-3.325-3.175zM129.562-280.4l11.8 4.387-10.237 3.75-1.563-8.137zM145-259.925l-12.388-4.6-.987-5.2 13.375-5 13.362 5-.987 5.2-12.375 4.6zm13.75-12.288-10.25-3.75 11.8-4.387-1.55 8.137zm2.1-11.05L145-277.35l-15.938-5.913-.762-4h33.4l-.85 4zm4.225-7.212a.711.711 0 0 1-.7.712h-38.8a.708.708 0 0 1-.7-.712v-2.838c0-.185.073-.363.205-.494a.697.697 0 0 1 .495-.206h38.85a.7.7 0 0 1 .7.7l-.05 2.838zm106.487 46.725h-43.125a1.254 1.254 0 0 1-1.25-1.25v-12.9a19.628 19.628 0 0 1 19.6-19.6h6.425a19.628 19.628 0 0 1 19.6 19.6v12.9a1.252 1.252 0 0 1-1.25 1.25zm-41.875-2.5h40.625v-11.65a17.112 17.112 0 0 0-17.1-17.1h-6.425a17.112 17.112 0 0 0-17.1 17.1v11.65zm34.713-51.013a3.24 3.24 0 0 0-1.375.325A13.841 13.841 0 0 0 250-306.25a13.838 13.838 0 0 0-13.025 9.237 3.247 3.247 0 0 0-1.375-.325 3.175 3.175 0 0 0-3.175 3.163v.45a3.172 3.172 0 0 0 3.175 3.175c.235-.004.47-.033.7-.088a13.832 13.832 0 0 0 13.75 12.05 13.836 13.836 0 0 0 13.75-12.05c.229.055.464.084.7.088a3.178 3.178 0 0 0 3.175-3.175v-.45a3.182 3.182 0 0 0-2.041-2.917 3.172 3.172 0 0 0-1.234-.208v.037zm-24.113-.875h19.425c.173.284.332.576.475.875h-20.375a9.86 9.86 0 0 1 .475-.912v.037zm17.4-2.5h-15.375A11.255 11.255 0 0 1 250-303.75c2.86.01 5.609 1.11 7.687 3.075v.037zm-22.087 7.663a.676.676 0 0 1-.675-.675v-.45a.675.675 0 0 1 .675-.663.66.66 0 0 1 .662.663v.65a.65.65 0 0 1-.662.437v.038zM250-281.05a11.338 11.338 0 0 1-11.325-11.325 6.522 6.522 0 0 1 0-.713c.019-.199.019-.4 0-.6v-.062c0-.338.1-.688.175-1.013h22.125c.075.325.125.675.175 1.013v.1c-.02.199-.02.4 0 .6.012.237.012.475 0 .712A11.337 11.337 0 0 1 250-281.05zm15.075-12.638a.674.674 0 0 1-.675.675.648.648 0 0 1-.625-.475v-.65a.659.659 0 0 1 .662-.662.674.674 0 0 1 .675.662l-.037.45zm-25.488 18.863 112.725 31.75h-25.925a1.254 1.254 0 0 1-1.25-1.25v-7.763a12.296 12.296 0 0 1 3.603-8.684 12.296 12.296 0 0 1 8.685-3.603h3.825a12.3 12.3 0 0 1 12.287 12.287v7.763a1.25 1.25 0 0 1-1.225 1.25l-112.725-31.75zm-24.675-2.5h23.425v-6.513a52.616 52.616 0 0 0 102.913 21.963h-3.85a9.804 9.804 0 0 0-6.918 2.87 9.803 9.803 0 0 0-2.87 6.917l-112.7-25.237zm5.45-16.663 50.538 19.163h86.787a1.254 1.254 0 0 1-1.25-1.25v-7.763a12.302 12.302 0 0 1 12.313 19.463h3.862a12.298 12.298 0 0 1 12.288 12.287v7.763a1.265 1.265 0 0 1-.375.893 1.259 1.259 0 0 1-.9.357l-163.263-50.913zm-24.687-2.5h186.7V-303a9.815 9.815 0 0 0-9.788-9.788h-3.837a9.805 9.805 0 0 0-9.788 9.788l-163.287 6.512zm5.45-16.662-23.113-27.5h-3.85a12.3 12.3 0 0 0-12.3 12.287v7.763a1.254 1.254 0 0 0 1.25 1.25h5.35a8.825 8.825 0 0 0 7.625 4.412 8.832 8.832 0 0 0 4.403-1.186 8.83 8.83 0 0 0 3.222-3.226h5.35a1.25 1.25 0 0 0 1.25-1.25v-7.763a77.905 77.905 0 0 0 56.131 94.807 77.91 77.91 0 0 0 94.807-56.132L201.125-313.15zm-1.925 23.212a6.324 6.324 0 0 1-6.313-6.25c.007-.323.041-.644.1-.962h12.425c.059.318.093.639.1.962a68.55 68.55 0 0 1 133.838 29.713L199.2-289.938zm137.05 11.65a6.246 6.246 0 0 1 3.05-.812 6.366 6.366 0 0 1 3.062.812h-6.112zm14.775 7.4h-3.138l.075-.287a2.4 2.4 0 0 0 2.4-2.4v-.275a2.4 2.4 0 0 0-2.4-2.4 2.377 2.377 0 0 0-.525.062 9.706 9.706 0 0 0-.712-1.325 1.49 1.49 0 0 0-.3-.425 8.75 8.75 0 0 0-11.133-2.689 8.747 8.747 0 0 0-3.117 2.702 1.1 1.1 0 0 0-.225.312 7.865 7.865 0 0 0-.775 1.425 2.401 2.401 0 0 0-2.938 2.338v.275a2.4 2.4 0 0 0 2.4 2.4l.075.287h-3.087v-6.512a9.81 9.81 0 0 1 9.8-9.788h3.825a9.817 9.817 0 0 1 9.8 9.788l-.025 6.512zm-3.063-30.687a1.792 1.792 0 0 0-.525.075 8.818 8.818 0 0 0-8.137-5.425 8.745 8.745 0 0 0-8.125 5.425 1.92 1.92 0 0 0-.538-.075 2.412 2.412 0 0 0-2.4 2.412v.275a2.4 2.4 0 0 0 2.4 2.4 8.84 8.84 0 0 0 8.663 7.188 8.828 8.828 0 0 0 8.662-7.188 2.398 2.398 0 0 0 2.4-2.4v-.275a2.414 2.414 0 0 0-2.35-2.412h-.05zm-5.6-2.025h-6.112a6.149 6.149 0 0 1 3.05-.825 6.248 6.248 0 0 1 3.112.825h-.05zm-3.062 11.8a6.323 6.323 0 0 1-6.313-6.313c.009-.322.042-.644.1-.962h12.425c.058.318.092.64.1.962a6.254 6.254 0 0 1-3.852 5.835 6.25 6.25 0 0 1-2.41.478h-.05zm-6.25 4.25 39.487-2.138h-3.787a12.285 12.285 0 0 0-12.275 12.288v7.762a1.246 1.246 0 0 0 1.25 1.25h5.325a8.837 8.837 0 0 0 7.625 4.413 8.753 8.753 0 0 0 7.625-4.413h5.35a1.25 1.25 0 0 0 1.25-1.25v-7.762a12.3 12.3 0 0 0-12.325-12.288l-39.525 2.138zm-5 11.4a6.257 6.257 0 0 1 3.05-.813 6.33 6.33 0 0 1 3.062.813h-6.112zm3.05 11.812a6.322 6.322 0 0 1-6.25-6.25c.003-.322.032-.644.087-.962h12.5c.055.318.084.64.088.962a16.69 16.69 0 1 1 33.125 4.113l-39.55 2.137zm11.725-4.412H339.7c0-.1 0-.188.062-.288a2.412 2.412 0 0 0 2.413-2.4v-.275a2.414 2.414 0 0 0-2.413-2.4 2.571 2.571 0 0 0-.525.063 8.833 8.833 0 0 0-8.137-5.413 8.83 8.83 0 0 0-8.125 5.413 2.401 2.401 0 0 0-2.938 2.337v.275a2.4 2.4 0 0 0 2.4 2.4 2.306 2.306 0 0 0 0 .288h-3.112v-6.513a9.798 9.798 0 0 1 9.775-9.787h3.85a9.813 9.813 0 0 1 9.8 9.787l.075 6.513zm-3.063-30.688a1.942 1.942 0 0 0-.525.075 8.821 8.821 0 0 0-8.137-5.425 8.829 8.829 0 0 0-8.125 5.425 1.958 1.958 0 0 0-.538-.075 2.416 2.416 0 0 0-2.4 2.413v.275a2.4 2.4 0 0 0 2.4 2.4 8.815 8.815 0 0 0 8.65 7.187 8.815 8.815 0 0 0 8.663-7.187 2.411 2.411 0 0 0 2.412-2.4v-.275a18.717 18.717 0 0 0 20.85 16.3 18.709 18.709 0 0 0 12.468-7.049 18.719 18.719 0 0 0 3.832-13.801l-39.55 2.137zm33.988-4.162h-6.113a6.245 6.245 0 0 1 3.05-.825 6.248 6.248 0 0 1 3.063.825zm-3.063 11.8a6.33 6.33 0 0 1-4.42-1.874 6.329 6.329 0 0 1-1.83-4.439c.009-.322.042-.644.1-.962h12.438c.058.318.091.64.1.962a6.326 6.326 0 0 1-6.425 6.313h.037zm-313.5 109.887a4.432 4.432 0 0 1-1.55-3.337v-10.788a1.248 1.248 0 0 0-1.25-1.25h-5.762a1.248 1.248 0 0 0-1.25 1.25A7.377 7.377 0 0 1 40-189a7.379 7.379 0 0 1-7.375-7.038 1.248 1.248 0 0 0-1.25-1.25h-5.763a1.248 1.248 0 0 0-1.25 1.25v10.788a4.491 4.491 0 0 1-1.55 3.35 11.423 11.423 0 0 0-3.85 8.562v29.375a1.249 1.249 0 0 0 1.25 1.25h39.575a1.247 1.247 0 0 0 1.25-1.25v-29.375a11.47 11.47 0 0 0-3.85-8.575zm1.35 36.7H21.462v-28.125A8.988 8.988 0 0 1 24.475-180a6.996 6.996 0 0 0 2.387-5.213v-9.537h3.388a9.888 9.888 0 0 0 9.75 8.225 9.888 9.888 0 0 0 9.75-8.225h3.387v9.537A6.99 6.99 0 0 0 55.525-180a8.997 8.997 0 0 1 3.012 6.7v28.087zm-7.6-24.287H29.062a1.252 1.252 0 0 0-1.25 1.25v12.812a1.249 1.249 0 0 0 1.25 1.25h21.875a1.247 1.247 0 0 0 1.25-1.25v-12.812a1.249 1.249 0 0 0-1.25-1.25zm-1.25 12.812H30.312V-167h19.375v10.312zM33.125-163.6a1.25 1.25 0 0 1 1.25-1.25h11.25a1.252 1.252 0 0 1 .883 2.134 1.252 1.252 0 0 1-.883.366h-11.25a1.252 1.252 0 0 1-1.25-1.25zm0 3.5a1.25 1.25 0 0 1 1.25-1.25h11.25a1.252 1.252 0 0 1 .883 2.134 1.252 1.252 0 0 1-.883.366h-11.25a1.246 1.246 0 0 1-1.155-.772 1.245 1.245 0 0 1-.095-.478zm133.125-41.875h-42.5a1.25 1.25 0 0 0-1.25 1.25v27.812a1.246 1.246 0 0 0 1.25 1.25h16.662v32.388a1.252 1.252 0 0 0 1.25 1.25h6.675a1.25 1.25 0 0 0 1.25-1.25v-32.388h16.663a1.247 1.247 0 0 0 1.25-1.25v-27.812a1.249 1.249 0 0 0-1.25-1.25zm-19.163 61.45h-4.175v-31.138h4.175v31.138zM165-174.163h-40v-25.312h40v25.312zm-32.825-3.95h7.5l.587 2.05a1.246 1.246 0 0 0 1.25.9h7.075a1.243 1.243 0 0 0 1.25-.9l.588-2.05h7.5a1.247 1.247 0 0 0 1.25-1.25v-14.9c0-.331-.132-.649-.367-.883a1.247 1.247 0 0 0-.883-.367h-25.75a1.247 1.247 0 0 0-1.25 1.25v14.9a1.246 1.246 0 0 0 1.25 1.25zm5.7-8.137c-.113 0-.2-.088-.2-.288a.2.2 0 0 1 .2-.187h14.25c.112 0 .2.087.2.287a.199.199 0 0 1-.2.188h-14.25zm4.525 8.625-1.738-6.125h8.675l-1.737 6.125h-5.2zm-8.975-15.35h23.15v12.4h-5.538l.9-3.175h.188a2.712 2.712 0 0 0 2.7-2.788 2.7 2.7 0 0 0-2.7-2.687h-14.25a2.717 2.717 0 0 0-2.7 2.787 2.701 2.701 0 0 0 2.7 2.688h.187l.9 3.175h-5.537v-12.4zM270.987-170v-29.4a1.252 1.252 0 0 0-1.25-1.25h-39.475a1.254 1.254 0 0 0-1.25 1.25v58.8a1.252 1.252 0 0 0 1.25 1.25h39.475a1.25 1.25 0 0 0 1.25-1.25V-170zM253.2-198.163v1.913h-6.4v-1.913h6.4zm-8.9 0V-195a1.25 1.25 0 0 0 1.25 1.25h8.9a1.25 1.25 0 0 0 1.25-1.25v-3.163h4.637A10.587 10.587 0 0 1 250-190a10.59 10.59 0 0 1-10.338-8.163h4.638zm-7.188 0A13.077 13.077 0 0 0 250-187.5a13.07 13.07 0 0 0 12.887-10.663h5.6v26.913h-9.525a9.074 9.074 0 0 0-8.962-7.813 9.077 9.077 0 0 0-8.963 7.813h-9.525v-26.913h5.6zm6.45 26.913a6.575 6.575 0 0 1 6.438-5.313 6.575 6.575 0 0 1 6.437 5.313h-12.875zm12.875 2.5a6.575 6.575 0 0 1-6.437 5.312 6.577 6.577 0 0 1-6.438-5.312h12.875zm-3.237 26.912h-6.4v-1.912h6.4v1.912zm2.5 0V-145a1.249 1.249 0 0 0-1.25-1.25h-8.9a1.25 1.25 0 0 0-1.25 1.25v3.162h-4.638A10.588 10.588 0 0 1 250-150a10.589 10.589 0 0 1 10.337 8.162H255.7zm7.187 0A13.072 13.072 0 0 0 250-152.5a13.071 13.071 0 0 0-12.888 10.662h-5.6v-26.912h9.525a9.071 9.071 0 0 0 8.963 7.812 9.071 9.071 0 0 0 8.962-7.812h9.525v26.912h-5.6zm115.175-55.112h-46.125a1.254 1.254 0 0 0-1.25 1.25v51.4a1.254 1.254 0 0 0 1.25 1.25h18.613a1.253 1.253 0 0 0 1.25-1.025l3.2-17.175 3.225 17.175a1.25 1.25 0 0 0 1.25 1.025h18.612a1.25 1.25 0 0 0 1.25-1.25v-51.4a1.256 1.256 0 0 0-.375-.893 1.248 1.248 0 0 0-.9-.357zm-44.875 2.5h43.625v2.775h-43.625v-2.775zm43.625 48.9h-16.325l-4.237-22.7a1.253 1.253 0 0 0-1.25-1.025 1.253 1.253 0 0 0-1.25 1.025l-4.263 22.7h-16.3v-43.625h43.625v43.625zM58.75-80.525l.975-.987a3.012 3.012 0 0 0 3.575-.5l.225-.238a3.01 3.01 0 0 0 0-4.263l-3.138-3.15a3.1 3.1 0 0 0-4.275 0l-.225.238a3 3 0 0 0-.512 3.55L53.7-84.187a27.888 27.888 0 0 0-9.95-3.313v-3.662a3.35 3.35 0 0 0 2.862-3.3 3.35 3.35 0 0 0-3.35-3.35h-6.375a3.35 3.35 0 0 0-3.337 3.35 3.337 3.337 0 0 0 2.85 3.3v3.662a27.7 27.7 0 0 0-10.113 3.362l-1.637-1.737a3.025 3.025 0 0 0-.513-3.563l-.225-.224a3.087 3.087 0 0 0-4.262 0l-3.15 3.15a3.012 3.012 0 0 0 0 4.262l.225.237a3.011 3.011 0 0 0 3.575.5l.975.988A27.762 27.762 0 0 0 12.187-60 27.837 27.837 0 0 0 40-32.163 27.837 27.837 0 0 0 67.812-60a27.763 27.763 0 0 0-9.062-20.525zm-1.1-7.137.237-.238a.437.437 0 0 1 .725 0l3.15 3.15a.525.525 0 0 1 0 .737l-.262.263a.512.512 0 0 1-.713 0l-3.162-3.188a.513.513 0 0 1 0-.724h.025zM57.037-84l.825.813-1.05 1.062c-.312-.237-.625-.475-.95-.7L57.037-84zm-20.95-10.487a.85.85 0 0 1 .838-.85H43.3a.862.862 0 0 1 .85.85.85.85 0 0 1-.85.85h-6.375a.837.837 0 0 1-.838-.85zm2.85 6.7v-3.35h2.313v3.35h-2.313zm-20.675 3.75a.525.525 0 0 1 0-.738l3.15-3.15a.537.537 0 0 1 .363-.15.487.487 0 0 1 .362.163l.238.225a.513.513 0 0 1 0 .724l-3.163 3.213a.512.512 0 0 1-.712 0l-.238-.287zm3.9.825.825-.813 1.175 1.175c-.325.225-.637.462-.95.7l-1.05-1.063zM40-34.663A25.338 25.338 0 0 1 14.687-60 25.337 25.337 0 0 1 40-85.287 25.337 25.337 0 0 1 65.312-60 25.338 25.338 0 0 1 40-34.663zm0-49.888A24.6 24.6 0 0 0 15.425-60 24.6 24.6 0 0 0 40-35.4 24.6 24.6 0 0 0 64.575-60 24.6 24.6 0 0 0 40-84.55zm0 46.65A22.1 22.1 0 0 1 17.925-60 22.1 22.1 0 0 1 40-82.05 22.1 22.1 0 0 1 62.075-60 22.1 22.1 0 0 1 40-37.9zM59.4-60A19.5 19.5 0 0 1 40-40.575 19.5 19.5 0 0 1 20.6-60 19.487 19.487 0 0 1 40-79.375V-60h19.4zm109.75-15.9-.188-.175a5.836 5.836 0 0 0 .868-5.917 5.834 5.834 0 0 0-1.28-1.908l-4.663-4.675a5.859 5.859 0 0 0-4.162-1.725 5.862 5.862 0 0 0-3.663 1.25l-.187-.188a5.601 5.601 0 0 0-7.888 0l-.787.8a5.555 5.555 0 0 0-1.634 3.938 5.55 5.55 0 0 0 1.634 3.938l4.537 4.537-17.662 17.763-4.55-4.538a5.484 5.484 0 0 0-3.938-1.638 5.487 5.487 0 0 0-3.937 1.638l-.788.787a5.482 5.482 0 0 0-1.637 3.938 5.53 5.53 0 0 0 1.637 3.95l.188.188a5.86 5.86 0 0 0 .4 7.812l4.675 4.675a5.898 5.898 0 0 0 4.162 1.713 5.85 5.85 0 0 0 3.65-1.25l.2.187a5.525 5.525 0 0 0 3.938 1.625 5.6 5.6 0 0 0 3.937-1.625l.788-.8a5.568 5.568 0 0 0 0-7.875l-4.538-4.538 17.675-17.675 4.538 4.538a5.562 5.562 0 0 0 3.937 1.638 5.563 5.563 0 0 0 3.938-1.638l.8-.787a5.61 5.61 0 0 0 1.649-3.97 5.6 5.6 0 0 0-1.649-3.968v-.025zM127.9-43.25l-4.663-4.663a3.4 3.4 0 0 1-.412-4.288l4.675 4.701 4.675 4.675a3.402 3.402 0 0 1-4.288-.4l.013-.025zm13.15-.188-.788.788a3.071 3.071 0 0 1-3.352.667 3.082 3.082 0 0 1-.998-.667l-.15-.138-7.812-7.812-5.325-5.3a3.068 3.068 0 0 1 0-4.337l.8-.8a3.06 3.06 0 0 1 4.337 0l13.275 13.274a3.06 3.06 0 0 1 .901 2.175 3.069 3.069 0 0 1-.901 2.175l.013-.025zm16.787-43.75a3.462 3.462 0 0 1 4.288.413l4.662 4.663a3.316 3.316 0 0 1 1 2.4 3.28 3.28 0 0 1-.587 1.887l-9.363-9.362zM136.5-55.837l-.663-.662L153.5-74.162l.662.662L136.5-55.837zm30.875-13.925-.788.8a3.071 3.071 0 0 1-3.352.667 3.082 3.082 0 0 1-.998-.666L157.7-73.5l-4.2-4.2-4.538-4.537a3.077 3.077 0 0 1 0-4.35l.8-.788a3.054 3.054 0 0 1 2.175-.9c.812.002 1.59.325 2.163.9l.15.138 12.987 13 .138.137a3.075 3.075 0 0 1 .9 2.169 3.071 3.071 0 0 1-.9 2.168zm93.1-13.987v-5.7a3.127 3.127 0 0 0-3.113-3.125h-2.9v-3.3A3.125 3.125 0 0 0 251.337-99h-2.675a3.125 3.125 0 0 0-3.125 3.125v3.375h-2.9a3.126 3.126 0 0 0-3.112 3.125v5.625a7.499 7.499 0 0 0-3.45 6.25v39.063a7.31 7.31 0 0 0 7.3 7.312h13.25a7.31 7.31 0 0 0 7.3-7.313v-38.974a7.503 7.503 0 0 0-3.45-6.338zm-12.438-12.125a.635.635 0 0 1 .625-.625h2.675a.635.635 0 0 1 .625.625v3.375h-3.925v-3.375zm-6.012 10.925v-4.5a.607.607 0 0 1 .375-.577.612.612 0 0 1 .237-.048h14.725a.608.608 0 0 1 .438.184.613.613 0 0 1 .175.441v4.5h-15.95zm19.4 46.563a4.812 4.812 0 0 1-4.8 4.812h-13.25a4.812 4.812 0 0 1-4.8-4.813v-39.024a5.004 5.004 0 0 1 1.464-3.536 5.003 5.003 0 0 1 3.536-1.465h12.85a5 5 0 0 1 5 5v39.025zm116.987-40-14.925 4a1.247 1.247 0 0 0-.887.874 1.25 1.25 0 0 0 .325 1.25l4.475 4.476c-11.65 8.987-32.5 8.45-42.975-1.638l-1.738 1.8c6 5.75 15.1 8.625 24.2 8.625 8.188 0 16.375-2.337 22.3-7l4.663 4.663a1.243 1.243 0 0 0 .887.362c.104.012.209.012.313 0a1.251 1.251 0 0 0 .887-.887L380-76.825a1.26 1.26 0 0 0-.325-1.25 1.255 1.255 0 0 0-1.263-.275v-.038zm-4.325 13.75-3.425-3.425-1.25-1.363-3.162-3.075 10.737-2.875-2.9 10.737zm-25.712-9.913a3.648 3.648 0 0 0 3.372-5.034 3.653 3.653 0 0 0-5.953-1.184 3.648 3.648 0 0 0-1.069 2.58 3.648 3.648 0 0 0 3.65 3.638zm0-4.788a1.15 1.15 0 0 1 1.15 1.15 1.151 1.151 0 0 1-2.3 0 1.152 1.152 0 0 1 1.15-1.15zm35.287-6.387a3.655 3.655 0 0 0-2.589 1.065 3.65 3.65 0 1 0 2.589-1.065zm0 4.8a1.151 1.151 0 0 1-.44-2.213 1.151 1.151 0 0 1 1.253 1.876 1.149 1.149 0 0 1-.813.337zM366.05-55.2a3.65 3.65 0 1 0 0 7.299 3.65 3.65 0 0 0 0-7.299zm0 4.8a1.15 1.15 0 1 1 0-2.299 1.15 1.15 0 0 1 0 2.299zm-26.25-1.15-2.75 2.75 2.75 2.75-1.763 1.775-2.75-2.763-2.75 2.763-1.775-1.775 2.75-2.75-2.75-2.75 1.775-1.775 2.75 2.763 2.75-2.763 1.763 1.775zm-10.813-16.538 2.75-2.75-2.75-2.75 1.775-1.775 2.75 2.763 2.75-2.763 1.763 1.775-2.75 2.75 2.75 2.75-1.775 1.838-2.75-2.763-2.7 2.763-1.813-1.838zM61.587 54.15V39.538a1.25 1.25 0 0 0-1.25-1.25h-11.95V35.25a1.25 1.25 0 0 0-1.25-1.25H41.25v-7.087h5.887a1.25 1.25 0 0 0 1.25-1.25v-8.576a1.25 1.25 0 0 0-1.25-1.25H32.862a1.25 1.25 0 0 0-1.25 1.25v8.576a1.25 1.25 0 0 0 1.25 1.25h5.888V34h-5.888a1.25 1.25 0 0 0-1.25 1.25v3.038h-11.95a1.25 1.25 0 0 0-1.25 1.25V54.15H8.537a1.25 1.25 0 0 0-1.25 1.25v8.75h2.5v-7.5h19.75v7.5h2.5V55.4a1.25 1.25 0 0 0-1.25-1.25h-9.875V40.788h10.7v3.025a1.25 1.25 0 0 0 1.25 1.25h14.275a1.25 1.25 0 0 0 1.25-1.25v-3.026h10.7V54.15H47.962v10h2.5v-7.5h19.75v7.5h2.5v-10H61.587zm-27.5-29.737v-6.076h11.775v6.076H34.087zm11.775 18.15h-11.75V36.5h11.775l-.025 6.063zm120.988-2.5a21.805 21.805 0 0 0-8.963-17.613v-7.662a5.002 5.002 0 0 0-5-5h-15.8a4.998 4.998 0 0 0-5 5v7.6A21.795 21.795 0 0 0 123.125 40a21.793 21.793 0 0 0 8.962 17.612v7.6a5 5 0 0 0 5 5h15.825a5.002 5.002 0 0 0 5-5v-7.6A21.806 21.806 0 0 0 166.875 40l-.025.063zm-32.263-25.276a2.5 2.5 0 0 1 2.5-2.5h15.825a2.501 2.501 0 0 1 2.5 2.5v5.975a21.874 21.874 0 0 0-20.825 0v-5.975zm20.825 50.426a2.499 2.499 0 0 1-2.5 2.5h-15.825a2.5 2.5 0 0 1-2.5-2.5v-5.975a21.879 21.879 0 0 0 20.825 0v5.975zM145 59.375a19.38 19.38 0 0 1-17.901-11.96A19.375 19.375 0 1 1 164.375 40 19.39 19.39 0 0 1 145 59.375zm0-37.6a18.227 18.227 0 0 0-17.875 21.78 18.222 18.222 0 0 0 14.319 14.32A18.226 18.226 0 0 0 163.225 40 18.25 18.25 0 0 0 145 21.775zm1.25 33.888v-3a1.248 1.248 0 0 0-1.25-1.25 1.249 1.249 0 0 0-1.25 1.25v3a15.715 15.715 0 0 1-14.413-14.413h3.013A1.248 1.248 0 0 0 133.6 40a1.248 1.248 0 0 0-1.25-1.25h-3.013a15.712 15.712 0 0 1 14.413-14.413v3.013A1.247 1.247 0 0 0 145 28.6a1.248 1.248 0 0 0 1.25-1.25v-3.013a15.712 15.712 0 0 1 14.412 14.413h-3a1.252 1.252 0 0 0-1.25 1.25 1.252 1.252 0 0 0 1.25 1.25h3a15.712 15.712 0 0 1-14.412 14.413zM153.987 40a1.252 1.252 0 0 1-1.25 1.25h-6.25a1.88 1.88 0 0 1-1.45.675 1.924 1.924 0 0 1-1.786-2.725 1.89 1.89 0 0 1 .499-.65V32.6a1.247 1.247 0 0 1 1.25-1.25 1.248 1.248 0 0 1 1.25 1.25v5.95c.072.06.139.127.2.2h6.25a1.248 1.248 0 0 1 1.287 1.25zm125.863-1.25h-15.938V21.875a1.252 1.252 0 0 0-1.25-1.25H237.35a1.249 1.249 0 0 0-1.25 1.25V38.75h-15.938a1.252 1.252 0 0 0-1.25 1.25v18.125a1.252 1.252 0 0 0 1.25 1.25h59.688a1.248 1.248 0 0 0 1.25-1.25V40a1.248 1.248 0 0 0-1.25-1.25zM238.6 23.125h22.812V38.75H238.6V23.125zM221.412 41.25h27.338v15.625h-27.338V41.25zM278.6 56.875h-27.35V41.25h27.35v15.625zm73.162-1.413-.337 1.95a1.243 1.243 0 0 0 .5 1.25 1.25 1.25 0 0 0 1.25.1l1.762-.925 1.763.925c.178.092.375.139.575.138a1.253 1.253 0 0 0 1.237-1.487l-.337-1.95 1.425-1.4a1.247 1.247 0 0 0 .307-1.28 1.251 1.251 0 0 0-1.007-.846l-1.963-.287-.875-1.788a1.247 1.247 0 0 0-1.125-.705 1.25 1.25 0 0 0-1.125.706l-.875 1.787-1.962.288a1.25 1.25 0 0 0-.7 2.124l1.487 1.4zm2.25-1.437a1.256 1.256 0 0 0 .938-.675v-.1.1a1.248 1.248 0 0 0 .937.675H356l-.075.075a1.246 1.246 0 0 0-.363 1.1v.112h-.087a1.327 1.327 0 0 0-1.175 0h-.088V55.2a1.249 1.249 0 0 0-.362-1.1l-.075-.075h.237zm30.288-37.5a1.252 1.252 0 0 0-2.134-.884 1.247 1.247 0 0 0-.366.884 26.8 26.8 0 0 1-53.6 0 1.252 1.252 0 0 0-2.134-.884 1.247 1.247 0 0 0-.366.884 29.338 29.338 0 0 0 23.262 28.663 10.7 10.7 0 1 0 12.075 0A29.335 29.335 0 0 0 384.3 16.524zm-21.1 37.5a8.2 8.2 0 1 1-16.4 0 8.2 8.2 0 0 1 16.4 0z" fill="#004786"/>
    </g>
    <defs>
        <clipPath id="a">
            <path fill="#fff" d="M0 0h80v80H0z"/>
        </clipPath>
    </defs>
</svg>
