<svg width="80" height="80" fill="none" xmlns="http://www.w3.org/2000/svg">
    <path d="M75 1.27H47.5c-2.068 0-3.75 1.709-3.75 3.81v16.507c0-2.801-2.242-5.08-5-5.08a4.89 4.89 0 0 0-2.5.707v-5.785c0-2.802-2.242-5.08-5-5.08a4.89 4.89 0 0 0-2.5.706V6.35c0-2.801-2.242-5.08-5-5.08s-5 2.279-5 5.08v.706a4.89 4.89 0 0 0-2.5-.706c-2.758 0-5 2.278-5 5.08v17.918c-1.59-1.652-3.803-2.68-6.25-2.68-2.067 0-3.75 1.709-3.75 3.81v17.499c0 7.685 2.67 15.126 7.5 21.03V80h30V68.86l.053-.11A18.366 18.366 0 0 0 45 69.84c10.339 0 18.75-8.545 18.75-19.047 0-10.503-8.411-19.048-18.75-19.048-.422 0-.835.037-1.25.065v-8.954c0 2.1 1.682 3.81 3.75 3.81h13.75v5.942c0 1.625 1.301 2.947 2.9 2.947.936 0 1.819-.462 2.36-1.235l5.384-7.654H75c2.067 0 3.75-1.71 3.75-3.81V5.08c0-2.1-1.683-3.81-3.75-3.81zM31.25 8.889c1.379 0 2.5 1.139 2.5 2.54v22.857h-5V11.428c0-1.4 1.121-2.54 2.5-2.54zm-10-2.54c0-1.4 1.121-2.54 2.5-2.54s2.5 1.14 2.5 2.54v27.937h-2.5c-.837 0-1.671.07-2.5.179V6.349zm-7.5 5.08c0-1.401 1.121-2.54 2.5-2.54s2.5 1.139 2.5 2.54v23.517a20.007 20.007 0 0 0-5 2.084V11.428zm-10 19.047c0-.7.56-1.27 1.25-1.27 3.446 0 6.25 2.848 6.25 6.35v7.093c0 .678.26 1.315.734 1.797l.213.215c2.614 2.656 4.053 6.186 4.053 9.942h2.5c0-4.434-1.699-8.602-4.786-11.738l-.214-.216v-2.617c2.92-2.064 6.441-3.207 10-3.207h8.545a19.119 19.119 0 0 0-6.045 13.969 19.098 19.098 0 0 0 9.435 16.508L10.581 67.3C6.173 61.868 3.75 55.03 3.75 47.976v-17.5zm7.5 46.984v-7.619h25v7.62h-25zm50-26.666c0 9.102-7.29 16.508-16.25 16.508s-16.25-7.406-16.25-16.508c0-9.103 7.29-16.508 16.25-16.508s16.25 7.405 16.25 16.508zm-25-16.833V21.587c0-1.4 1.121-2.54 2.5-2.54s2.5 1.14 2.5 2.54V32.13a18.392 18.392 0 0 0-5 1.83zm40-11.104c0 .7-.56 1.27-1.25 1.27h-4.394l-6.131 8.72c-.201.287-.725.118-.725-.238v-8.482H47.5c-.69 0-1.25-.57-1.25-1.27V5.08c0-.7.56-1.27 1.25-1.27H75c.69 0 1.25.57 1.25 1.27v17.778z" fill="#004786"/>
    <path d="M43.75 62.094v2.668h2.5v-2.54h5v-6.349c0-3.5-2.804-6.35-6.25-6.35-2.068 0-3.75-1.708-3.75-3.809v-3.81H45c2.068 0 3.75 1.71 3.75 3.81v3.81h2.5v-3.81c0-3.065-2.151-5.63-5-6.22v-2.669h-2.5v2.54h-5v6.35c0 3.5 2.804 6.348 6.25 6.348 2.068 0 3.75 1.71 3.75 3.81v3.81H45c-2.068 0-3.75-1.71-3.75-3.81v-3.81h-2.5v3.81c0 3.065 2.151 5.63 5 6.221zM65 13.968c-2.068 0-3.75 1.71-3.75 3.81s1.682 3.81 3.75 3.81c2.067 0 3.75-1.71 3.75-3.81s-1.683-3.81-3.75-3.81zm0 5.08c-.69 0-1.25-.57-1.25-1.27 0-.7.56-1.27 1.25-1.27s1.25.57 1.25 1.27c0 .7-.56 1.27-1.25 1.27zM57.5 13.968c2.068 0 3.75-1.709 3.75-3.81 0-2.1-1.682-3.809-3.75-3.809s-3.75 1.71-3.75 3.81 1.682 3.81 3.75 3.81zm0-5.08c.69 0 1.25.571 1.25 1.27 0 .7-.56 1.27-1.25 1.27s-1.25-.57-1.25-1.27c0-.699.56-1.27 1.25-1.27z" fill="#004786"/>
    <path d="m66.616 6.722-12.5 12.698 1.768 1.795 12.5-12.698-1.768-1.795z" fill="#004786"/>
</svg>
