<svg width="80" height="80" fill="none" xmlns="http://www.w3.org/2000/svg">
    <path d="M40 5C20.672 5 5 20.672 5 40s15.672 35 35 35 35-15.672 35-35S59.328 5 40 5zm0 64.063c-16.047 0-29.063-13.016-29.063-29.063 0-16.047 13.016-29.063 29.063-29.063 16.047 0 29.063 13.016 29.063 29.063 0 16.047-13.016 29.063-29.063 29.063zm3.727-30.876-1.985-.46V27.234c2.969.407 4.805 2.266 5.117 4.547.04.313.305.54.618.54h3.507c.368 0 .657-.321.625-.688-.476-4.867-4.484-7.992-9.836-8.531v-2.555a.627.627 0 0 0-.625-.625h-2.195a.627.627 0 0 0-.625.625v2.578c-5.531.54-9.86 3.594-9.86 9.297 0 5.281 3.891 7.828 7.977 8.805l1.93.492v11.148c-3.453-.46-5.39-2.304-5.79-4.789a.622.622 0 0 0-.616-.516h-3.61a.626.626 0 0 0-.625.68c.352 4.297 3.61 8.25 10.563 8.758v2.453c0 .344.281.625.625.625h2.219a.628.628 0 0 0 .625-.633l-.016-2.476c6.117-.54 10.492-3.813 10.492-9.688-.008-5.422-3.453-7.843-8.515-9.093zm-5.36-1.265a11.417 11.417 0 0 1-1.172-.39c-2.64-.954-3.867-2.493-3.867-4.477 0-2.836 2.149-4.453 5.04-4.82v9.687zm3.375 15.969V42.445c.242.07.461.125.688.172 3.695 1.125 4.937 2.688 4.937 5.086 0 3.055-2.297 4.89-5.625 5.188z" fill="#004786"/>
</svg>
