<svg xmlns="http://www.w3.org/2000/svg" width="16" height="24" viewBox="0 0 16 24">
    <g fill="none" fill-rule="evenodd">
        <g fill="#FFF" fill-rule="nonzero">
            <g>
                <g>
                    <path d="M15.35 12.373c0-.48-.366-.846-.845-.846-.48 0-.846.366-.846.846 0 3.297-2.677 5.974-5.975 5.974-3.297 0-5.974-2.677-5.974-5.974 0-.48-.367-.846-.846-.846-.48 0-.846.366-.846.846 0 3.917 2.932 7.215 6.82 7.637v2.255H3.768c-.48 0-.846.366-.846.845 0 .48.367.846.846.846h7.835c.479 0 .845-.366.845-.846 0-.479-.366-.845-.845-.845H8.53V20.01c3.89-.422 6.82-3.72 6.82-7.637z" transform="translate(-179 -528) translate(125 478) translate(54 50)"/>
                    <path d="M7.684 0C5.092 0 2.978 2.114 2.978 4.707v7.637c0 2.621 2.114 4.707 4.706 4.735 2.593 0 4.707-2.114 4.707-4.706V4.707C12.391 2.114 10.277 0 7.684 0z" transform="translate(-179 -528) translate(125 478) translate(54 50)"/>
                </g>
            </g>
        </g>
    </g>
</svg>
