<svg xmlns="http://www.w3.org/2000/svg" width="14" height="18" viewBox="0 0 14 18">
    <g fill="none" fill-rule="evenodd">
        <g fill="#FE3939" fill-rule="nonzero">
            <g>
                <path d="M2.076 16.49c.043.848.737 1.51 1.587 1.51h6.439c.85 0 1.544-.662 1.586-1.51l.928-10.666H1.149l.927 10.667zm6.395-8.02h1.058v5.824H8.471V8.471zm-2.118 0h1.059v5.824h-1.06V8.471zm-2.118 0h1.06v5.824h-1.06V8.471zM9.53 2.647V1.588C9.53.713 8.816 0 7.94 0H5.824c-.876 0-1.589.713-1.589 1.588v1.06H0v2.117h13.765V2.647H9.529zm-4.236 0V1.588c0-.292.238-.53.53-.53H7.94c.292 0 .53.238.53.53v1.06H5.294z" transform="translate(-82 -692) translate(82 692)"/>
            </g>
        </g>
    </g>
</svg>
