<svg width="80" height="80" fill="none" xmlns="http://www.w3.org/2000/svg">
    <g clip-path="url(#a)" fill="#004786">
        <path d="M35.68 42.56H32.8c-.88 0-1.76-.4-2.32-1.04-.64-.64-.88-1.52-.8-2.48.16-1.6 1.6-2.8 3.36-2.8h3.28c.96 0 1.76.64 2 1.6.16.56.64 1.04 1.28 1.04h3.76c.4 0 .72-.16.96-.48.24-.24.4-.64.32-.96A8.336 8.336 0 0 0 37.36 30v-3.2c0-.72-.56-1.36-1.36-1.36h-3.76c-.72 0-1.36.56-1.36 1.36v3.28A9.387 9.387 0 0 0 23.2 40.4c.48 4.8 4.8 8.56 9.92 8.56h2.4c.88 0 1.76.4 2.32 1.04.64.64.88 1.52.8 2.48-.16 1.6-1.6 2.8-3.36 2.8H32c-.96 0-1.76-.64-2-1.6-.16-.56-.64-1.04-1.28-1.04h-3.76c-.4 0-.72.16-1.04.48-.24.24-.4.64-.32.96.4 3.92 3.44 6.96 7.28 7.44v3.2c0 .72.56 1.36 1.36 1.36H36c.72 0 1.36-.56 1.36-1.36v-3.36c4.16-.88 7.36-4.24 7.68-8.32.24-2.72-.56-5.36-2.4-7.36-1.76-1.92-4.32-3.12-6.96-3.12z"/>
        <path d="M72.64 16.16C72.64 8.32 66.32 2 58.48 2 51.6 2 45.84 6.96 44.56 13.52H10c-1.44 0-2.64 1.12-2.64 2.64v59.2C7.36 76.8 8.48 78 10 78h48.48c1.44 0 2.64-1.12 2.64-2.64V30.08c6.56-1.28 11.52-7.04 11.52-13.92zm-5.2 0c0 1.52-.4 2.88-1.04 4.16l-12-12c1.2-.64 2.56-1.12 4.08-1.12 4.88 0 8.96 4 8.96 8.96zm-17.92 0c0-1.52.4-2.88 1.04-4.16l12 12c-1.28.64-2.64 1.04-4.16 1.04-4.88.08-8.88-4-8.88-8.88zM12.56 72.8v-54h32c1.04 5.68 5.6 10.16 11.28 11.28V72.8H12.56z"/>
    </g>
    <defs>
        <clipPath id="a">
            <path fill="#fff" d="M0 0h80v80H0z"/>
        </clipPath>
    </defs>
</svg>
