<svg width="80" height="80" fill="none" xmlns="http://www.w3.org/2000/svg">
    <path d="M59.12 60.08c-.64 0-1.28.16-1.68.56-4.88 4.08-11.04 6.4-17.44 6.4-14.88 0-26.96-12.08-26.96-26.96V37.6h4.48c.72 0 1.28-.4 1.68-.96.32-.64.32-1.36-.08-1.92L12.24 24c-.32-.48-.88-.72-1.6-.72-.72 0-1.28.32-1.6.72L2.32 34.64c-.4.56-.4 1.28-.08 1.92.32.64.96.96 1.68.96H8.4V40c0 17.44 14.16 31.6 31.68 31.6 7.44 0 14.72-2.64 20.4-7.44.96-.8 1.12-2.32.24-3.28-.4-.48-.96-.8-1.6-.8zM77.76 43.44c-.32-.64-.96-.96-1.68-.96H71.6V40c0-17.44-14.16-31.68-31.68-31.68-7.44 0-14.72 2.64-20.4 7.44-.96.8-1.12 2.32-.24 3.28.8.96 2.32 1.12 3.28.24 4.88-4.08 11.04-6.4 17.44-6.4 14.88 0 26.96 12.08 26.96 26.96v2.48h-4.48c-.72 0-1.28.4-1.68.96-.32.56-.32 1.36.08 1.92L67.76 56c.32.48.96.8 1.6.8.64 0 1.28-.32 1.6-.8l6.8-10.64c.32-.56.32-1.28 0-1.92z" fill="#004786"/>
    <path d="M57.6 40c0-9.76-7.92-17.6-17.6-17.6-9.68 0-17.6 7.92-17.6 17.6 0 9.76 7.92 17.6 17.6 17.6 9.68 0 17.6-7.84 17.6-17.6zM38.24 50.72v-1.84c-2.16-.24-3.84-2-4.08-4.16 0-.16.08-.4.16-.56.16-.16.32-.24.56-.24h2.16c.32 0 .64.24.64.56.08.56.56.96 1.12.96h1.84c.96 0 1.84-.72 1.92-1.6.08-.56-.08-1.04-.48-1.44-.32-.4-.8-.64-1.36-.64h-1.36c-2.8 0-5.28-2.08-5.52-4.8-.24-2.8 1.6-5.28 4.32-5.76v-1.92c0-.4.32-.72.72-.72h2.08c.4 0 .72.32.72.72v1.84c2.16.24 3.84 2 4.08 4.16 0 .16-.08.4-.16.48-.16.16-.32.24-.56.24h-2.16c-.32 0-.64-.24-.64-.56-.08-.56-.56-.96-1.12-.96h-1.84c-.96 0-1.84.72-1.92 1.6-.08.56.08 1.04.48 1.44.32.4.8.64 1.36.64h1.6c1.52 0 2.96.64 3.92 1.76A5.111 5.111 0 0 1 46.08 44c-.24 2.32-2 4.16-4.32 4.64v1.92c0 .4-.32.72-.72.72h-2.08c-.4.16-.72-.16-.72-.56z" fill="#004786"/>
</svg>
