<svg width="80" height="80" fill="none" xmlns="http://www.w3.org/2000/svg">
    <path d="m40.4 60.96-8.08-5.68c-.56-.4-1.36-.48-2-.16-.64.32-1.04.96-1.04 1.68v3.36H23.2c-1.76 0-3.12-1.44-3.12-3.12V41.36c0-1.28-1.04-2.32-2.32-2.32-1.28 0-2.32 1.04-2.32 2.32v15.68c0 4.32 3.52 7.84 7.84 7.84h6.08v3.36c0 .72.4 1.36 1.04 1.68.24.16.56.24.88.24.4 0 .8-.08 1.12-.32l8.08-5.68c.48-.32.8-.96.8-1.6 0-.64-.32-1.28-.88-1.6zM39.6 19.04l8.08 5.68c.32.24.72.32 1.12.32.32 0 .64-.08.88-.24.64-.32 1.04-.96 1.04-1.68v-3.36h6.08c1.76 0 3.12 1.44 3.12 3.12v15.68c0 1.28 1.04 2.32 2.32 2.32 1.28 0 2.32-1.04 2.32-2.32v-15.6c0-4.32-3.52-7.84-7.84-7.84h-6.08v-3.36c0-.72-.4-1.36-1.04-1.68-.64-.32-1.44-.24-2 .16l-8.08 5.68c-.48.32-.8.96-.8 1.6 0 .56.32 1.2.88 1.52zM61.84 45.6c-8.96 0-16.24 7.28-16.24 16.24C45.6 70.8 52.88 78 61.76 78c8.88 0 16.16-7.28 16.16-16.16.08-8.96-7.2-16.24-16.08-16.24zm1.6 24.64V72c0 .4-.32.64-.64.64h-2c-.4 0-.64-.32-.64-.64v-1.76c-2.08-.24-3.68-1.92-3.92-4 0-.16.08-.32.16-.48.16-.16.32-.24.48-.24h2c.32 0 .56.24.64.48.08.48.56.88 1.12.88h1.76c.96 0 1.76-.72 1.84-1.52.08-.48-.08-.96-.4-1.36-.32-.4-.8-.56-1.28-.56h-1.52c-1.44 0-2.8-.64-3.76-1.68A4.99 4.99 0 0 1 56 57.84c.24-2.16 1.92-4 4.16-4.48v-1.84c0-.4.32-.64.64-.64h2c.4 0 .64.32.64.64v1.76c2.08.24 3.68 1.92 3.92 4 0 .16-.08.4-.16.48-.16.16-.32.24-.48.24h-2c-.32 0-.56-.24-.64-.48-.08-.48-.56-.88-1.12-.88H61.2c-.96 0-1.76.72-1.84 1.52-.08.48.08.96.48 1.36.32.4.8.56 1.28.56h1.28c2.72 0 5.04 2 5.28 4.56.24 2.72-1.6 5.12-4.24 5.6zM34.4 18.16C34.4 9.2 27.12 2 18.24 2 9.28 2 2.08 9.28 2.08 18.16 2 27.12 9.28 34.4 18.16 34.4c8.96 0 16.24-7.28 16.24-16.24zm-20.48 8c-.96.56-2.08-.32-1.84-1.36l.88-4.4c.08-.24 0-.56-.24-.72l-3.36-3.04c-.8-.72-.4-2.08.72-2.16l4.48-.48c.24 0 .48-.16.64-.48l1.84-4.08c.48-.96 1.84-.96 2.32 0l1.84 4.08c.08.24.32.4.64.4l4.48.48c1.04.16 1.52 1.44.72 2.16l-3.36 3.04c-.16.16-.32.48-.24.72l.88 4.4c.24 1.04-.88 1.92-1.84 1.36l-3.92-2.24a.6.6 0 0 0-.72 0l-3.92 2.32z" fill="#004786"/>
</svg>
