<svg width="19" height="19" fill="none" xmlns="http://www.w3.org/2000/svg">
    <path fill-rule="evenodd" clip-rule="evenodd" d="M3.547 1.267h-.064c-.29 0-.54 0-.76.052a1.9 1.9 0 0 0-1.406 1.404c-.05.22-.05.469-.05.76V6.65c0 .29 0 .54.052.76a1.9 1.9 0 0 0 1.404 1.406c.22.05.47.05.76.05H6.65c.29 0 .54 0 .76-.051A1.9 1.9 0 0 0 8.816 7.41c.05-.22.05-.469.05-.76V3.483c0-.29 0-.54-.051-.76A1.9 1.9 0 0 0 7.41 1.317c-.22-.05-.469-.05-.76-.05H3.547zM3.019 2.55c.054-.013.139-.018.528-.018h3.04c.39 0 .473.004.528.018a.633.633 0 0 1 .469.469c.012.053.016.137.016.527v3.04c0 .39-.004.473-.018.528a.633.633 0 0 1-.468.469c-.052.01-.136.016-.527.016h-3.04c-.39 0-.474-.004-.528-.018a.633.633 0 0 1-.47-.468c-.01-.052-.016-.136-.016-.527v-3.04c0-.39.004-.474.018-.529a.633.633 0 0 1 .469-.468l-.001.001zm9.394-1.284h-.063c-.29 0-.54 0-.76.052a1.9 1.9 0 0 0-1.406 1.404c-.05.22-.05.469-.05.76V6.65c0 .29 0 .54.051.76a1.9 1.9 0 0 0 1.405 1.406c.22.05.469.05.76.05h3.167c.29 0 .54 0 .76-.051a1.9 1.9 0 0 0 1.406-1.405c.05-.22.05-.469.05-.76V3.483c0-.29 0-.54-.052-.76a1.901 1.901 0 0 0-1.404-1.406c-.22-.05-.469-.05-.76-.05h-3.104zm-.528 1.284c.055-.013.14-.018.528-.018h3.04c.39 0 .474.004.529.018a.633.633 0 0 1 .468.469c.013.053.017.137.017.527v3.04c0 .39-.005.473-.018.528a.633.633 0 0 1-.469.469c-.053.012-.136.016-.527.016h-3.04c-.39 0-.473-.004-.528-.018a.633.633 0 0 1-.469-.468c-.01-.052-.016-.136-.016-.527v-3.04c0-.39.004-.474.018-.529a.633.633 0 0 1 .469-.468l-.002.001zm-8.402 7.582H6.65c.29 0 .54 0 .76.052a1.9 1.9 0 0 1 1.406 1.405c.05.22.05.469.05.76v3.167c0 .29 0 .54-.051.76a1.9 1.9 0 0 1-1.405 1.406c-.22.05-.469.05-.76.05H3.483c-.29 0-.54 0-.76-.052a1.9 1.9 0 0 1-1.406-1.404c-.05-.22-.05-.469-.05-.76V12.35c0-.29 0-.54.052-.76a1.9 1.9 0 0 1 1.404-1.406c.22-.05.47-.05.76-.05zm.064 1.267c-.39 0-.474.004-.528.018a.633.633 0 0 0-.47.468c-.01.052-.016.136-.016.527v3.04c0 .39.004.474.018.529a.634.634 0 0 0 .469.468c.053.013.137.017.527.017h3.04c.39 0 .473-.005.528-.018a.633.633 0 0 0 .469-.469c.012-.053.016-.136.016-.527v-3.04c0-.39-.004-.473-.018-.528a.633.633 0 0 0-.468-.469c-.052-.01-.136-.016-.527-.016h-3.04zm8.866-1.267h-.063c-.29 0-.54 0-.76.052a1.9 1.9 0 0 0-1.406 1.405c-.05.22-.05.469-.05.76v3.167c0 .29 0 .54.051.76a1.9 1.9 0 0 0 1.405 1.406c.22.052.47.052.76.052h3.167c.29 0 .54 0 .76-.052a1.9 1.9 0 0 0 1.404-1.405c.052-.22.052-.47.052-.76V12.35c0-.29 0-.54-.052-.76a1.9 1.9 0 0 0-1.404-1.406c-.22-.05-.469-.05-.76-.05h-3.104zm-.528 1.285c.055-.013.14-.018.528-.018h3.04c.39 0 .474.004.529.018a.632.632 0 0 1 .468.468c.013.054.017.137.017.527v3.04c0 .39-.005.474-.018.529a.634.634 0 0 1-.469.468c-.053.013-.136.017-.527.017h-3.04c-.39 0-.473-.005-.528-.018a.633.633 0 0 1-.469-.469c-.01-.052-.016-.135-.016-.527v-3.04c0-.39.004-.473.018-.528a.633.633 0 0 1 .469-.469l-.002.002z" fill="#004A8A"/>
</svg>
