<svg width="19" height="19" fill="none" xmlns="http://www.w3.org/2000/svg">
    <path d="M14.646 15.833a.396.396 0 0 1-.396.396h-9.5a.396.396 0 0 1-.396-.396V3.167a.396.396 0 0 1 .396-.396H9.5v3.562a1.583 1.583 0 0 0 1.583 1.584h3.563v7.916zM10.687 3.658l3.07 3.071h-2.674a.396.396 0 0 1-.396-.396V3.658zm4.682 3.003-4.614-4.614c-.02-.02-.046-.036-.068-.055a1.642 1.642 0 0 0-.173-.143c-.032-.021-.068-.035-.101-.053-.056-.032-.112-.067-.171-.092a1.566 1.566 0 0 0-.494-.11c-.037-.002-.074-.01-.112-.01H4.75a1.583 1.583 0 0 0-1.583 1.583v12.666a1.583 1.583 0 0 0 1.583 1.584h9.5a1.583 1.583 0 0 0 1.583-1.584V7.781c0-.42-.167-.823-.464-1.12z" fill="#004A8A"/>
</svg>
