<svg width="19" height="19" fill="none" xmlns="http://www.w3.org/2000/svg">
    <path d="M8.702.045a7.977 7.977 0 0 0-1.547.363c-.45.16-1.013.427-1.114.527-.104.104-.089.304.03.397.056.045.119.078.145.078.026 0 .234-.089.467-.2C9.147.045 11.98.482 13.923 2.334a6.47 6.47 0 0 1 1.195 7.878c-1.295 2.294-3.855 3.582-6.446 3.24-1.391-.182-2.593-.764-3.636-1.759-1.006-.965-1.648-2.17-1.904-3.585-.093-.515-.093-1.636 0-2.152A6.505 6.505 0 0 1 5.01 2.394c.208-.205.393-.401.412-.438.081-.149-.067-.36-.249-.36-.093 0-.174.048-.375.219-.582.508-1.15 1.265-1.55 2.063-.736 1.473-.936 2.976-.61 4.59.223 1.114.835 2.346 1.574 3.173l.204.23-.408.713c-.223.393-.408.742-.408.783 0 .107.167.252.29.252.144 0 .196-.052.378-.371.089-.152.248-.434.36-.623l.2-.342.267.215a6.98 6.98 0 0 0 2.186 1.2c.27.088.5.166.508.17.019.01-2.349 4.126-2.375 4.13-.01 0-.16-.438-.326-.976-.171-.534-.334-1.002-.364-1.039-.089-.097-.226-.082-1.243.141-.512.111-.939.197-.95.19-.008-.012.211-.416.49-.902.538-.94.556-.991.386-1.136-.09-.074-.249-.082-.334-.015-.063.048-1.307 2.186-1.385 2.383-.025.059-.037.137-.025.167.03.092.163.222.23.222.033 0 .593-.119 1.243-.26.65-.144 1.187-.252 1.198-.244.008.01.182.541.383 1.18.26.82.393 1.18.445 1.224.115.097.249.082.36-.037.056-.056.72-1.184 1.473-2.505l1.373-2.4.26.029c.341.033 1.414.033 1.744-.004l.26-.03.835 1.459c.46.802.864 1.484.902 1.521.1.104.3.09.393-.03a.344.344 0 0 0 .078-.159c0-.033-.367-.701-.817-1.484a67.557 67.557 0 0 1-.809-1.433 7.423 7.423 0 0 0 2.742-1.395c.127-.108.238-.182.246-.16.007.019.527.928 1.158 2.02.63 1.09 1.143 1.988 1.139 1.992 0 0-.453-.093-1.002-.215a28.091 28.091 0 0 0-1.062-.22c-.163 0-.185.056-.675 1.604l-.16.512-.13-.178c-.144-.193-.278-.238-.422-.141-.171.111-.156.219.092.668.334.597.35.616.505.616.245 0 .204.093.843-1.934l.17-.538 1.143.253c.627.137 1.195.256 1.266.26.152.007.263-.108.263-.271 0-.07-.434-.858-1.343-2.435-.735-1.28-1.347-2.36-1.358-2.397-.012-.037.037-.123.126-.223.39-.423.757-.976 1.057-1.603a7.014 7.014 0 0 0-.894-7.496 9.045 9.045 0 0 0-1.377-1.288C13.13.995 12.41.62 11.905.431A7.268 7.268 0 0 0 8.702.044z" fill="#004A8A"/>
    <path d="M8.684 1.985c-2.149.364-3.849 2.049-4.209 4.183a6.135 6.135 0 0 0 0 1.729 5.116 5.116 0 0 0 3.44 3.996c.509.171.98.242 1.604.242 1.239 0 2.323-.394 3.273-1.195.579-.486 1.273-1.418 1.273-1.71 0-.123-.149-.25-.29-.25-.13 0-.104-.03-.53.624-.524.801-1.396 1.455-2.357 1.77-.842.275-1.93.275-2.776 0a4.572 4.572 0 0 1-1.796-1.102c-.972-.961-1.429-2.19-1.34-3.6.104-1.555 1.08-3.002 2.513-3.718a4.545 4.545 0 0 1 3.436-.241 4.581 4.581 0 0 1 3.047 3.521c.067.36.078 1.162.018 1.503-.052.312-.048.364.037.457.108.115.305.111.401-.011.1-.127.16-.564.16-1.162 0-.538-.037-.831-.171-1.325-.508-1.922-2.137-3.392-4.12-3.71-.4-.067-1.227-.067-1.613 0z" fill="#004A8A"/>
    <path d="M9.359 3.774c-.026.011-.245.412-.486.898l-.442.876-.92.13c-.865.122-.932.137-1.024.23-.186.178-.164.211.597.968l.705.698-.167.954c-.167.942-.167.95-.096 1.042.137.186.234.16 1.12-.308.45-.237.832-.43.858-.43.022 0 .404.193.85.43.883.468.983.494 1.12.308.07-.092.07-.1-.096-1.042l-.167-.95.705-.702c.482-.482.701-.723.701-.779a.349.349 0 0 0-.085-.182c-.082-.093-.13-.104-1.024-.234l-.943-.133-.423-.854c-.234-.471-.453-.875-.486-.901-.06-.045-.208-.056-.297-.019zm.475 1.559c.174.36.349.671.39.697.059.037 1.317.241 1.484.241.022 0-.208.238-.512.531-.501.486-.546.538-.546.657 0 .074.052.423.112.776.063.352.107.649.104.653-.008.007-.294-.141-.642-.327-.346-.185-.672-.334-.724-.334-.052 0-.375.152-.724.338-.345.185-.634.33-.642.323-.003-.004.041-.3.104-.653.06-.353.112-.702.112-.776 0-.119-.041-.17-.546-.657-.304-.293-.53-.53-.512-.53.17 0 1.425-.205 1.484-.242.041-.026.22-.341.39-.697.174-.36.323-.654.334-.654.011 0 .16.294.334.654z" fill="#004A8A"/>
</svg>
