<svg width="19" height="19" fill="none" xmlns="http://www.w3.org/2000/svg">
    <path d="M14.449 15.17c.234.178.467.268.693.268.258 0 .48-.117.63-.33.124-.18.188-.414.188-.696v-4.079l1.273-.477a.38.38 0 0 0 .247-.356V7.41a.38.38 0 0 0-.247-.356l-1.273-.477V2.738c0-.707-.41-1.024-.816-1.024-.226 0-.46.09-.695.268a.473.473 0 0 0-.02.015l-3.184 2.748c-.52.392-.98.575-1.445.575H2.834c-.815 0-1.504.726-1.504 1.586v3.338c0 .847.674 1.536 1.504 1.536h.633l.716 5.37a.38.38 0 0 0 .377.33H7.6a.38.38 0 0 0 .377-.43l-.703-5.27H9.8c.446 0 .907.19 1.45.6l3.178 2.774a.398.398 0 0 0 .02.017zm2.271-7.497v1.564l-.76.285V7.388l.76.285zM2.09 10.244V6.906c0-.44.347-.826.744-.826H8.55v4.94H2.834c-.41 0-.744-.348-.744-.776zm5.076 6.476H4.893l-.66-4.94h2.274l.659 4.94zm4.553-4.94c-.432-.326-1.1-.76-1.919-.76h-.49V6.08h.49c.634 0 1.26-.24 1.914-.736l.019-.015 3.184-2.748c.137-.102.213-.107.225-.11.015.012.058.09.058.267v11.674c0 .183-.046.259-.051.266h-.007c-.013 0-.089-.005-.225-.106l-3.178-2.774a.456.456 0 0 0-.02-.017z" fill="#B0BAC9"/>
</svg>
