<svg xmlns="http://www.w3.org/2000/svg" width="200" height="200" fill="none" viewBox="0 0 200 200">
    <path fill="#FFC800" d="M180.918 169.083L47.585 35.749 30.918 19.083c-.777-.777-1.7-1.393-2.715-1.814-1.015-.42-2.103-.637-3.202-.637-1.099 0-2.187.216-3.202.637-1.015.42-1.938 1.037-2.714 1.814-1.57 1.569-2.451 3.697-2.451 5.917 0 2.219.881 4.347 2.45 5.916l14.25 14.167v53.916c.006 11.934 2.86 23.694 8.324 34.304C47.122 143.912 55.04 153.065 64.751 160l30.417 21.75c1.411 1.004 3.1 1.544 4.833 1.544s3.422-.54 4.834-1.544L135.251 160c2.518-1.781 4.912-3.73 7.167-5.834l26.667 26.75c.774.781 1.696 1.401 2.711 1.824 1.016.423 2.105.641 3.205.641s2.19-.218 3.205-.641c1.016-.423 1.937-1.043 2.712-1.824.781-.775 1.401-1.696 1.824-2.712.423-1.015.641-2.104.641-3.204 0-1.101-.218-2.19-.641-3.205-.423-1.016-1.043-1.937-1.824-2.712zM125.585 146.5l-25.584 18.25-25.583-18.25c-7.558-5.402-13.717-12.53-17.964-20.792-4.247-8.262-6.46-17.419-6.453-26.709V61.75l80.584 80.667c-1.584 1.417-3.25 2.75-5 4.084zM83.918 42.25C89.52 40.372 94.91 37.915 100 34.915c14.994 9.123 32.523 13.184 50 11.584V99c.006 3.295-.273 6.585-.833 9.833-.178 1.084-.141 2.192.111 3.261.251 1.069.712 2.078 1.354 2.969.643.89 1.456 1.645 2.391 2.221.936.575 1.976.96 3.061 1.132h1.333c1.997.026 3.938-.667 5.467-1.952 1.53-1.284 2.547-3.076 2.866-5.048.654-4.135.989-8.314 1-12.5v-62c-.008-1.23-.289-2.444-.822-3.554-.533-1.11-1.305-2.087-2.261-2.863-.952-.785-2.066-1.35-3.262-1.652-1.196-.303-2.444-.336-3.655-.098-8.914 1.934-18.133 1.992-27.071.17-8.938-1.822-17.399-5.484-24.845-10.753-1.395-.968-3.053-1.486-4.75-1.486-1.698 0-3.355.518-4.75 1.486-5.138 3.544-10.749 6.35-16.667 8.334-1.04.35-2 .901-2.827 1.623-.826.721-1.502 1.598-1.99 2.58-.487.984-.777 2.053-.851 3.147-.074 1.095.068 2.193.418 3.233s.902 2 1.623 2.826c.721.827 1.599 1.503 2.581 1.99 1.985.985 4.28 1.141 6.38.434l-.084-.084z"/>
</svg>
