<svg width="200" height="200" fill="none" xmlns="http://www.w3.org/2000/svg">
    <path d="M91.601.469C86.992.977 80.04 2.617 75.312 4.297c-4.726 1.68-10.664 4.492-11.718 5.547-1.094 1.094-.938 3.203.312 4.18.586.468 1.25.82 1.524.82.273 0 2.46-.938 4.921-2.11C96.29.47 126.094 5.078 146.562 24.57c22.774 21.641 27.93 55.742 12.578 82.93-13.632 24.141-40.585 37.695-67.851 34.102-14.648-1.914-27.305-8.047-38.281-18.516-10.586-10.156-17.344-22.852-20.04-37.734-.976-5.43-.976-17.227 0-22.657 2.657-14.648 9.258-27.187 19.766-37.5 2.188-2.148 4.14-4.218 4.336-4.609.86-1.563-.703-3.79-2.617-3.79-.977 0-1.836.509-3.945 2.306-6.133 5.351-12.11 13.32-16.329 21.718-7.734 15.508-9.843 31.328-6.406 48.32 2.344 11.719 8.79 24.688 16.563 33.399l2.148 2.422-4.297 7.5c-2.343 4.141-4.296 7.812-4.296 8.242 0 1.133 1.757 2.656 3.046 2.656 1.524 0 2.07-.546 3.985-3.906.937-1.601 2.617-4.57 3.789-6.562l2.11-3.594 2.812 2.266c6.68 5.468 14.765 9.882 23.008 12.617 2.851.937 5.273 1.758 5.351 1.797.195.117-24.727 43.437-25 43.476-.117 0-1.68-4.609-3.438-10.273-1.796-5.625-3.515-10.547-3.828-10.938-.937-1.015-2.382-.859-13.085 1.485-5.391 1.171-9.883 2.07-10 1.992-.079-.117 2.226-4.375 5.156-9.492 5.664-9.883 5.86-10.43 4.062-11.954-.937-.781-2.617-.859-3.515-.156-.665.508-13.75 23.008-14.57 25.078-.274.625-.391 1.446-.274 1.758.312.977 1.719 2.344 2.422 2.344.351 0 6.25-1.25 13.086-2.734 6.836-1.524 12.5-2.657 12.617-2.579.078.118 1.914 5.704 4.023 12.422 2.735 8.633 4.14 12.422 4.688 12.891 1.21 1.016 2.617.859 3.789-.391.586-.586 7.578-12.461 15.508-26.367l14.453-25.273 2.734.312c3.594.352 14.883.352 18.36-.039l2.734-.312 8.789 15.351c4.844 8.438 9.102 15.625 9.492 16.016 1.055 1.094 3.164.937 4.141-.313.469-.586.82-1.328.82-1.679 0-.352-3.867-7.383-8.594-15.625-4.726-8.243-8.554-15.039-8.515-15.079.078-.039 1.25-.39 2.656-.781 8.906-2.578 18.984-7.929 26.211-13.906 1.328-1.133 2.5-1.914 2.578-1.68.078.196 5.547 9.766 12.188 21.25 6.64 11.485 12.031 20.938 11.992 20.977 0 0-4.766-.977-10.547-2.266-5.781-1.25-10.82-2.304-11.172-2.304-1.719 0-1.953.585-7.109 16.875l-1.68 5.39-1.367-1.875c-1.524-2.031-2.93-2.5-4.453-1.484-1.797 1.172-1.641 2.304.976 7.031 3.516 6.289 3.672 6.484 5.313 6.484 2.578 0 2.148.977 8.867-20.351l1.797-5.664 12.031 2.656c6.602 1.445 12.578 2.695 13.32 2.734 1.602.079 2.774-1.132 2.774-2.851 0-.742-4.571-9.024-14.141-25.625-7.734-13.477-14.18-24.844-14.297-25.235-.117-.39.391-1.289 1.328-2.343 4.102-4.453 7.969-10.274 11.133-16.875 12.5-25.82 8.828-56.602-9.414-78.907-3.281-4.023-10.273-10.546-14.492-13.554-4.336-3.125-11.914-7.07-17.227-9.063C115.117.742 102.5-.78 91.602.47z" fill="#FFC800"/>
    <path d="M91.406 20.898C68.79 24.727 50.898 42.462 47.11 64.922c-.859 4.922-.859 13.281 0 18.203 3.32 19.609 17.188 35.703 36.211 42.07 5.352 1.797 10.313 2.539 16.875 2.539 13.047 0 24.453-4.14 34.453-12.578 6.094-5.117 13.399-14.922 13.399-18.008 0-1.289-1.563-2.617-3.047-2.617-1.367 0-1.094-.312-5.586 6.563-5.508 8.437-14.687 15.312-24.805 18.633-8.867 2.89-20.312 2.89-29.218 0-7.07-2.305-13.477-6.25-18.907-11.602-10.234-10.117-15.039-23.047-14.101-37.89 1.094-16.368 11.367-31.602 26.445-39.141 11.055-5.547 24.453-6.485 36.172-2.54 16.602 5.548 28.828 19.688 32.07 37.071.703 3.79.821 12.227.196 15.82-.547 3.282-.508 3.829.39 4.805 1.133 1.211 3.203 1.172 4.219-.117 1.055-1.328 1.68-5.938 1.68-12.227 0-5.664-.391-8.75-1.797-13.945-5.352-20.234-22.5-35.703-43.36-39.063-4.218-.703-12.93-.703-16.992 0z" fill="#FFC800"/>
    <path d="M98.516 39.727c-.274.117-2.579 4.336-5.118 9.453l-4.648 9.218-9.688 1.368c-9.101 1.289-9.804 1.445-10.78 2.422-1.954 1.874-1.72 2.226 6.288 10.195l7.422 7.344-1.758 10.039c-1.757 9.921-1.757 10-1.015 10.976 1.445 1.953 2.46 1.68 11.797-3.242 4.726-2.5 8.75-4.531 9.023-4.531.234 0 4.258 2.031 8.945 4.531 9.297 4.922 10.352 5.195 11.797 3.242.742-.976.742-1.055-1.015-10.976l-1.758-10 7.422-7.383c5.078-5.078 7.383-7.617 7.383-8.203 0-.47-.391-1.328-.899-1.914-.859-.977-1.367-1.094-10.781-2.461l-9.922-1.407-4.453-8.984c-2.461-4.96-4.766-9.219-5.117-9.492-.625-.469-2.188-.586-3.125-.195zm5 16.406c1.836 3.789 3.672 7.07 4.101 7.344.625.39 13.867 2.539 15.625 2.539.235 0-2.187 2.5-5.39 5.586-5.274 5.117-5.743 5.664-5.743 6.914 0 .78.547 4.453 1.172 8.164.664 3.71 1.133 6.836 1.094 6.875-.078.078-3.086-1.485-6.758-3.438-3.633-1.953-7.07-3.515-7.617-3.515-.547 0-3.945 1.601-7.617 3.554-3.633 1.953-6.68 3.477-6.758 3.399-.04-.04.43-3.164 1.094-6.875.625-3.711 1.172-7.383 1.172-8.164 0-1.25-.43-1.797-5.743-6.914-3.203-3.086-5.585-5.586-5.39-5.586 1.797 0 15-2.149 15.625-2.54.43-.273 2.305-3.593 4.101-7.343 1.836-3.79 3.399-6.875 3.516-6.875.117 0 1.68 3.086 3.516 6.875z" fill="#FFC800"/>
</svg>
