<svg width="200" height="200" fill="none" xmlns="http://www.w3.org/2000/svg">
    <path d="M20 0H6.667A6.667 6.667 0 0 0 0 6.667V20a6.667 6.667 0 0 0 6.667 6.667H20A6.667 6.667 0 0 0 26.667 20V6.667A6.667 6.667 0 0 0 20 0zM20 160H6.667A6.667 6.667 0 0 0 0 166.667V180a6.667 6.667 0 0 0 6.667 6.667H20A6.667 6.667 0 0 0 26.667 180v-13.333A6.667 6.667 0 0 0 20 160zM20 53.333H6.667A6.667 6.667 0 0 0 0 60v13.333A6.667 6.667 0 0 0 6.667 80H20a6.667 6.667 0 0 0 6.667-6.667V60A6.667 6.667 0 0 0 20 53.333zM20 106.667H6.667A6.666 6.666 0 0 0 0 113.333v13.334a6.666 6.666 0 0 0 6.667 6.666H20a6.666 6.666 0 0 0 6.667-6.666v-13.334A6.666 6.666 0 0 0 20 106.667zM193.333 0H60a6.667 6.667 0 0 0-6.666 6.667V20A6.667 6.667 0 0 0 60 26.667h133.333A6.667 6.667 0 0 0 200 20V6.667A6.667 6.667 0 0 0 193.333 0zM193.333 53.333H60A6.667 6.667 0 0 0 53.334 60v13.333A6.667 6.667 0 0 0 60 80h133.333A6.667 6.667 0 0 0 200 73.333V60a6.667 6.667 0 0 0-6.667-6.667zM193.333 106.667H60a6.666 6.666 0 0 0-6.666 6.666v13.334A6.666 6.666 0 0 0 60 133.333h133.333a6.666 6.666 0 0 0 6.667-6.666v-13.334a6.666 6.666 0 0 0-6.667-6.666zM193.333 160H60a6.667 6.667 0 0 0-6.666 6.667V180A6.667 6.667 0 0 0 60 186.667h133.333A6.667 6.667 0 0 0 200 180v-13.333a6.667 6.667 0 0 0-6.667-6.667z" fill="#FFC800"/>
</svg>
