<svg width="19" height="19" fill="none" xmlns="http://www.w3.org/2000/svg">
    <path d="M8.08 3.231a2.85 2.85 0 0 1 2.84 0l6.891 3.958a.475.475 0 0 1 0 .823l-2.611 1.5v4.263a.476.476 0 0 1-.139.336l-.002.001-.002.003-.006.006-.022.02-.076.071c-.066.058-.162.14-.286.236a7.706 7.706 0 0 1-1.084.696A8.639 8.639 0 0 1 9.5 16.151a8.638 8.638 0 0 1-4.083-1.007 7.696 7.696 0 0 1-1.083-.696 5.53 5.53 0 0 1-.363-.306.505.505 0 0 1-.171-.367V9.511l-1.9-1.09v4.404a.475.475 0 1 1-.95 0V7.6a.475.475 0 0 1 .247-.417L8.08 3.231zm2.84 8.738a2.85 2.85 0 0 1-2.84 0l-3.33-1.912v3.506c.346.284.72.533 1.114.743A7.68 7.68 0 0 0 9.5 15.2a7.687 7.687 0 0 0 3.636-.893c.395-.21.768-.46 1.114-.745v-3.505l-3.33 1.911v.001zm-.474-7.913a1.9 1.9 0 0 0-1.892 0L2.379 7.6l6.175 3.545a1.9 1.9 0 0 0 1.892 0L16.621 7.6l-6.175-3.545z" fill="#B0BAC9"/>
</svg>
